<?xml version="1.0" encoding="UTF-8"?>
<svg xmlns="http://www.w3.org/2000/svg" viewBox="0 0 64 64" width="64" height="64">
  <g fill="#4682b4">
    <path d="M32 6
             C 44 6, 44 22, 36 30
             L 32 32
             L 28 30
             C 20 22, 20 6, 32 6 Z"/>
    <path d="M58 32
             C 58 44, 42 44, 34 36
             L 32 32
             L 34 28
             C 42 20, 58 20, 58 32 Z"/>
    <path d="M32 58
             C 20 58, 20 42, 28 34
             L 32 32
             L 36 34
             C 44 42, 44 58, 32 58 Z"/>
    <path d="M6 32
             C 6 20, 22 20, 30 28
             L 32 32
             L 30 36
             C 22 44, 6 44, 6 32 Z"/>
  </g>
  <circle cx="32" cy="32" r="6" fill="#2a4f7a"/>
  <circle cx="32" cy="32" r="2" fill="#e8eef5"/>
</svg>
